<?xml version="1.0" standalone="no"?><!DOCTYPE svg PUBLIC "-//W3C//DTD SVG 1.1//EN" "http://www.w3.org/Graphics/SVG/1.1/DTD/svg11.dtd"><svg t="1693690942824" class="icon" viewBox="0 0 1024 1024" version="1.1" xmlns="http://www.w3.org/2000/svg" p-id="4208" width="64" height="64" xmlns:xlink="http://www.w3.org/1999/xlink"><path d="M356.266667 128c50.346667-7.253333 103.68 47.786667 119.04 123.733333 15.36 75.52-12.373333 142.933333-62.72 150.613334-49.92 7.68-103.68-47.36-119.466667-123.306667-15.786667-75.52 12.8-142.933333 63.146667-151.04m305.066666 0c50.773333 8.106667 78.933333 75.52 64 151.04-16.213333 75.946667-69.546667 130.986667-119.893333 123.306667-50.773333-7.68-78.506667-75.093333-62.72-150.613334 15.36-75.946667 68.693333-130.986667 118.613333-123.733333M128 324.266667c48.64-20.906667 114.773333 17.066667 149.333333 83.2 32.426667 67.413333 21.333333 138.24-26.88 159.146666-48.213333 20.906667-113.92-16.64-147.626666-83.626666C69.12 416 81.066667 344.746667 128 324.266667m768 0c46.933333 20.48 58.88 91.733333 25.173333 158.72-33.706667 66.986667-99.413333 104.533333-147.626666 83.626666-48.213333-20.906667-59.306667-91.733333-26.88-159.146666C781.226667 341.333333 847.36 303.36 896 324.266667m-71.253333 459.946666c1.706667 40.106667-29.013333 84.48-65.706667 101.12-76.373333 34.986667-166.826667-37.546667-251.733333-37.546666-84.906667 0-176.213333 75.52-251.306667 37.546666-42.666667-20.906667-72.106667-76.373333-66.56-122.453333 7.68-63.573333 84.053333-97.706667 129.28-144.213333 60.16-60.16 102.826667-173.226667 188.586667-173.226667 85.333333 0 130.56 111.36 188.16 173.226667 47.36 52.053333 126.293333 96 129.28 165.546666z" fill="" p-id="4209"></path></svg>